<?xml version="1.0" encoding="UTF-8"?><svg id="a" xmlns="http://www.w3.org/2000/svg" xmlns:xlink="http://www.w3.org/1999/xlink" viewBox="0 0 430 200"><defs><style>.d{fill:#951a81;}.d,.e,.f,.g,.h,.i,.j{stroke-width:0px;}.e{fill:#e50053;}.f{fill:#ffed00;}.g{fill:#37ae6d;}.h{fill:#e4032e;}.i{fill:url(#b);}.j{fill:url(#c);}</style><linearGradient id="b" x1="-79.107" y1="872.258" x2="-78.105" y2="872.258" gradientTransform="translate(274846.031 127274.778) rotate(-60) scale(345.55 -345.55)" gradientUnits="userSpaceOnUse"><stop offset="0" stop-color="#e50053"/><stop offset=".433" stop-color="#e50053"/><stop offset="1" stop-color="#e50053"/><stop offset="1" stop-color="#e50053"/></linearGradient><linearGradient id="c" x1="62.966" y1="92.232" x2="410.395" y2="92.232" gradientUnits="userSpaceOnUse"><stop offset=".55" stop-color="#e4032e"/><stop offset="1" stop-color="#e50053"/></linearGradient></defs><path class="g" d="M3.673,52.677V17.544c0-.705.459-1.328,1.133-1.536L49.62,2.144l.213,37.238L3.673,52.677Z"/><polygon class="f" points="3.673 126.478 3.673 89.568 49.659 76.035 49.833 112.421 3.673 126.478"/><polygon class="d" points="3.673 163.617 3.673 126.478 49.833 112.42 49.62 149.345 3.673 163.617"/><path class="e" d="M3.673,196.838v-33.221l45.947-14.272v35.357l-44.642,13.112c-.652.192-1.305-.297-1.305-.976"/><polygon class="h" points="3.673 89.567 3.673 52.676 49.833 39.382 49.659 76.034 3.673 89.567"/><path class="i" d="M49.619,2.144h374.065c1.46,0,2.643,1.183,2.643,2.643v177.272c0,1.46-1.183,2.643-2.643,2.643H49.619v-2h374.065c.356,0,.642-.287.643-.643V4.787c0-.356-.287-.642-.643-.643H49.619v-2Z"/><path class="j" d="M78.348,137.993v-13.627c0-.304.246-.551.55-.551h3.151c3.381,0,5.232,1.69,5.232,6.681v1.126c0,4.91-1.851,6.922-5.232,6.922h-3.151c-.304,0-.55-.247-.55-.551M63.767,111.34c-.303,0-.55.247-.55.551v59.262c0,.304.247.55.55.55h14.03c.304,0,.551-.246.551-.55v-19.664c0-.304.246-.55.55-.55h3.796c11.589,0,18.752-6.52,18.752-18.512v-2.737c0-12.072-7.163-18.35-18.752-18.35h-18.927ZM166.883,131.22v-6.854c0-.304.246-.551.55-.551h3.151c3.381,0,5.232,1.69,5.232,6.681v1.126c0,4.91-1.851,6.922-5.232,6.922h-3.151c-.304,0-.55-.247-.55-.551M166.883,137.993v-6.773M152.303,111.34c-.305,0-.551.247-.551.551v59.262c0,.304.246.55.551.55h14.029c.304,0,.551-.246.551-.55v-19.664c0-.304.246-.55.55-.55h3.796c11.589,0,18.752-6.52,18.752-18.512v-2.737c0-12.072-7.163-18.35-18.752-18.35h-18.926ZM219.105,111.34c-.304,0-.551.247-.551.551v41.462c0,4.99-1.69,6.68-4.427,6.68-2.816,0-4.426-1.69-4.426-6.68v-41.462c0-.304-.247-.551-.551-.551h-14.593c-.304,0-.55.247-.55.551v40.898c0,13.603,7.645,20.363,20.12,20.363s20.121-6.76,20.121-20.363v-40.898c0-.304-.246-.551-.55-.551h-14.593ZM285.867,149.203l2.528-24.24c.069-.658,1.027-.658,1.095,0l2.529,24.24c.033.325-.222.609-.549.609h-5.055c-.327,0-.581-.284-.548-.609M277.111,111.34c-.276,0-.509.205-.545.478l-6.247,46.847h-13.788c-.304,0-.55-.247-.55-.551v-46.223c0-.304-.247-.551-.551-.551h-14.594c-.303,0-.55.247-.55.551v59.262c0,.304.247.55.55.55h42.137c.282,0,.519-.214.548-.495l.865-8.507c.028-.281.264-.494.547-.494h8.02c.282,0,.518.213.547.494l.866,8.507c.028.281.264.495.547.495h13.763c.333,0,.59-.293.546-.623l-7.902-59.262c-.036-.273-.269-.478-.545-.478h-23.664ZM313.237,111.34c-.303,0-.55.247-.55.551v59.262c0,.304.247.55.55.55h14.593c.305,0,.551-.246.551-.55v-59.262c0-.304-.246-.551-.551-.551h-14.593ZM350.192,138.074v-13.708c0-.304.246-.551.551-.551h2.749c3.138,0,5.151,1.69,5.151,6.278v1.369c0,4.989-2.013,7.163-5.151,7.163h-2.749c-.305,0-.551-.247-.551-.551M335.371,111.34c-.305,0-.551.247-.551.551v59.262c0,.304.246.55.551.55h14.271c.303,0,.55-.246.55-.55v-25.271c0-.64.906-.766,1.081-.151l7.256,25.572c.068.237.284.4.531.4h15.624c.38,0,.647-.376.519-.735l-9.712-27.364c-.095-.269.031-.56.286-.683,5.127-2.467,8.319-6.985,8.319-13.633v-2.253c0-10.222-7.647-15.695-18.27-15.695h-20.455ZM379.637,111.34c-.304,0-.551.247-.551.551v59.262c0,.304.247.55.551.55h30.207c.304,0,.551-.246.551-.55v-11.937c0-.304-.247-.551-.551-.551h-14.835c-.304,0-.551-.247-.551-.551v-10.005c0-.304.247-.551.551-.551h13.226c.304,0,.55-.246.55-.551v-11.936c0-.305-.246-.551-.55-.551h-13.226c-.304,0-.551-.247-.551-.551v-9.04c0-.304.247-.55.551-.55h14.835c.304,0,.551-.247.551-.55v-11.938c0-.304-.247-.551-.551-.551h-30.207ZM120.764,152.789v-22.535c0-5.473,1.851-7.243,4.828-7.243s4.83,1.77,4.83,7.243v22.535c0,5.393-1.852,7.244-4.83,7.244s-4.828-1.851-4.828-7.244M105.07,130.817v21.409c0,14.004,7.806,20.926,20.522,20.926s20.524-6.922,20.524-20.926v-21.409c0-14.004-7.807-20.925-20.524-20.925s-20.522,6.921-20.522,20.925M63.523,43.607c-.304,0-.551.247-.551.551v59.261c0,.304.247.55.551.55h14.271c.304,0,.55-.246.55-.55v-21.434c0-.304.247-.551.551-.551h11.857c.304,0,.55-.246.55-.55v-11.937c0-.304-.246-.551-.55-.551h-11.857c-.304,0-.551-.247-.551-.551v-10.649c0-.304.247-.55.551-.55h13.628c.304,0,.551-.247.551-.551v-11.937c0-.304-.247-.551-.551-.551h-29ZM112.55,70.34v-13.707c0-.304.247-.551.551-.551h2.75c3.138,0,5.15,1.69,5.15,6.278v1.368c0,4.99-2.012,7.163-5.15,7.163h-2.75c-.304,0-.551-.247-.551-.551M97.729,43.607c-.304,0-.551.247-.551.551v59.261c0,.304.247.55.551.55h14.271c.304,0,.55-.246.55-.55v-25.272c0-.638.907-.765,1.08-.15l7.258,25.572c.067.237.284.4.529.4h15.625c.381,0,.646-.376.519-.734l-9.712-27.365c-.095-.268.031-.56.287-.684,5.127-2.466,8.318-6.984,8.318-13.631v-2.254c0-10.221-7.646-15.694-18.27-15.694h-20.455ZM214.807,43.607c-.304,0-.55.247-.55.551v42.32c0,.684-1.001.754-1.097.076l-6-42.473c-.038-.272-.271-.474-.545-.474h-20.701c-.304,0-.551.247-.551.551v59.261c0,.304.247.55.551.55h11.051c.304,0,.551-.246.551-.55v-42.98c0-.686,1.002-.754,1.096-.075l5.921,43.13c.037.272.27.475.546.475h20.78c.304,0,.55-.246.55-.55v-59.261c0-.304-.246-.551-.55-.551h-11.052ZM231.656,43.607c-.304,0-.549.247-.549.551v11.937c0,.304.245.551.549.551h7.753c.304,0,.55.246.55.55v46.223c0,.304.247.55.551.55h14.512c.304,0,.551-.246.551-.55v-46.223c0-.304.247-.55.551-.55h7.752c.304,0,.55-.247.55-.551v-11.937c0-.304-.246-.551-.55-.551h-32.22ZM154.695,85.056v-22.535c0-5.473,1.85-7.243,4.828-7.243s4.83,1.77,4.83,7.243v22.535c0,5.392-1.852,7.243-4.83,7.243s-4.828-1.851-4.828-7.243M139.001,63.084v21.408c0,14.004,7.806,20.926,20.522,20.926s20.524-6.922,20.524-20.926v-21.408c0-14.004-7.807-20.926-20.524-20.926s-20.522,6.922-20.522,20.926M74.536,11.868c-.251,0-.454.203-.454.454v12.597c0,.564-.825.622-.903.063l-1.798-12.723c-.032-.225-.223-.391-.449-.391h-7.513c-.25,0-.453.203-.453.454v22.316c0,.251.203.453.453.453h3.769c.25,0,.453-.202.453-.453v-12.751c0-.565.827-.622.904-.062l1.767,12.875c.031.224.223.391.45.391h7.542c.251,0,.453-.202.453-.453V12.322c0-.251-.202-.454-.453-.454h-3.768ZM108.624,11.868c-.25,0-.454.203-.454.454v15.71c0,1.92-.65,2.57-1.703,2.57-1.083,0-1.703-.65-1.703-2.57v-15.71c0-.251-.203-.454-.454-.454h-5.13c-.251,0-.454.203-.454.454v15.493c0,5.233,2.942,7.835,7.741,7.835s7.741-2.602,7.741-7.835v-15.493c0-.251-.203-.454-.453-.454h-5.131ZM125.7,11.868c-.232,0-.427.175-.451.407l-1.611,15.308c-.057.542-.846.542-.903,0l-1.612-15.308c-.024-.232-.219-.407-.451-.407h-4.802c-.274,0-.485.242-.449.514l2.975,22.316c.03.225.222.393.45.393h8.68c.228,0,.42-.168.45-.393l2.976-22.316c.036-.272-.176-.514-.45-.514h-4.802ZM132.773,11.868c-.251,0-.454.203-.454.454v22.316c0,.251.203.453.454.453h11.137c.251,0,.455-.202.455-.453v-4.109c0-.25-.204-.453-.455-.453h-5.223c-.251,0-.454-.204-.454-.454v-3.366c0-.25.203-.453.454-.453h4.604c.251,0,.453-.204.453-.454v-4.109c0-.251-.202-.454-.453-.454h-4.604c-.251,0-.454-.203-.454-.454v-2.993c0-.251.203-.455.454-.455h5.223c.251,0,.455-.203.455-.453v-4.109c0-.251-.204-.454-.455-.454h-11.137ZM151.878,26.169l.704-6.751c.056-.543.846-.543.902,0l.704,6.751c.028.267-.182.5-.452.5h-1.407c-.269,0-.479-.233-.451-.5M148.693,11.868c-.228,0-.421.168-.45.394l-2.976,22.316c-.036.272.176.513.45.513h4.8c.233,0,.428-.175.452-.407l.289-2.838c.023-.231.218-.408.451-.408h2.647c.233,0,.429.177.452.408l.289,2.838c.023.232.219.407.452.407h4.8c.274,0,.486-.241.45-.513l-2.976-22.316c-.03-.226-.222-.394-.45-.394h-8.68ZM171.754,11.868c-.25,0-.453.203-.453.454v15.71c0,1.92-.65,2.57-1.703,2.57-1.084,0-1.704-.65-1.704-2.57v-15.71c0-.251-.202-.454-.453-.454h-5.13c-.252,0-.455.203-.455.454v15.493c0,5.233,2.942,7.835,7.742,7.835s7.741-2.602,7.741-7.835v-15.493c0-.251-.204-.454-.454-.454h-5.131ZM86.962,27.815v-8.67c0-2.106.712-2.787,1.857-2.787s1.858.681,1.858,2.787v8.67c0,2.074-.712,2.787-1.858,2.787s-1.857-.713-1.857-2.787M80.924,19.362v8.237c0,5.387,3.003,8.051,7.895,8.051s7.896-2.664,7.896-8.051v-8.237c0-5.388-3.003-8.051-7.896-8.051s-7.895,2.663-7.895,8.051"/></svg>